<svg id="visual" viewBox="0 0 900 600" width="900" height="600" xmlns="http://www.w3.org/2000/svg" xmlns:xlink="http://www.w3.org/1999/xlink" version="1.1"><rect x="0" y="0" width="900" height="600" fill="#ffffff"></rect><path d="M0 362L15 368.5C30 375 60 388 90 396.2C120 404.3 150 407.7 180 403.3C210 399 240 387 270 383C300 379 330 383 360 385.5C390 388 420 389 450 395.3C480 401.7 510 413.3 540 417.3C570 421.3 600 417.7 630 406.3C660 395 690 376 720 371.2C750 366.3 780 375.7 810 375.8C840 376 870 367 885 362.5L900 358L900 601L885 601C870 601 840 601 810 601C780 601 750 601 720 601C690 601 660 601 630 601C600 601 570 601 540 601C510 601 480 601 450 601C420 601 390 601 360 601C330 601 300 601 270 601C240 601 210 601 180 601C150 601 120 601 90 601C60 601 30 601 15 601L0 601Z" fill="#d5d5d5"></path><path d="M0 436L15 429.2C30 422.3 60 408.7 90 409.7C120 410.7 150 426.3 180 432C210 437.7 240 433.3 270 431C300 428.7 330 428.3 360 431.5C390 434.7 420 441.3 450 443.5C480 445.7 510 443.3 540 438.2C570 433 600 425 630 427.8C660 430.7 690 444.3 720 446C750 447.7 780 437.3 810 427.7C840 418 870 409 885 404.5L900 400L900 601L885 601C870 601 840 601 810 601C780 601 750 601 720 601C690 601 660 601 630 601C600 601 570 601 540 601C510 601 480 601 450 601C420 601 390 601 360 601C330 601 300 601 270 601C240 601 210 601 180 601C150 601 120 601 90 601C60 601 30 601 15 601L0 601Z" fill="#ababab"></path><path d="M0 476L15 476.3C30 476.7 60 477.3 90 471.3C120 465.3 150 452.7 180 446.2C210 439.7 240 439.3 270 442.7C300 446 330 453 360 453.8C390 454.7 420 449.3 450 456.2C480 463 510 482 540 491.7C570 501.3 600 501.7 630 495.5C660 489.3 690 476.7 720 467C750 457.3 780 450.7 810 453.3C840 456 870 468 885 474L900 480L900 601L885 601C870 601 840 601 810 601C780 601 750 601 720 601C690 601 660 601 630 601C600 601 570 601 540 601C510 601 480 601 450 601C420 601 390 601 360 601C330 601 300 601 270 601C240 601 210 601 180 601C150 601 120 601 90 601C60 601 30 601 15 601L0 601Z" fill="#838383"></path><path d="M0 526L15 523.5C30 521 60 516 90 515.7C120 515.3 150 519.7 180 516.2C210 512.7 240 501.3 270 495.8C300 490.3 330 490.7 360 492.3C390 494 420 497 450 499.2C480 501.3 510 502.7 540 506.3C570 510 600 516 630 518C660 520 690 518 720 517.7C750 517.3 780 518.7 810 516.5C840 514.3 870 508.7 885 505.8L900 503L900 601L885 601C870 601 840 601 810 601C780 601 750 601 720 601C690 601 660 601 630 601C600 601 570 601 540 601C510 601 480 601 450 601C420 601 390 601 360 601C330 601 300 601 270 601C240 601 210 601 180 601C150 601 120 601 90 601C60 601 30 601 15 601L0 601Z" fill="#5d5d5d"></path><path d="M0 545L15 545.3C30 545.7 60 546.3 90 549.8C120 553.3 150 559.7 180 557.5C210 555.3 240 544.7 270 538.2C300 531.7 330 529.3 360 535.7C390 542 420 557 450 561.3C480 565.7 510 559.3 540 551.7C570 544 600 535 630 531.5C660 528 690 530 720 533.2C750 536.3 780 540.7 810 540.8C840 541 870 537 885 535L900 533L900 601L885 601C870 601 840 601 810 601C780 601 750 601 720 601C690 601 660 601 630 601C600 601 570 601 540 601C510 601 480 601 450 601C420 601 390 601 360 601C330 601 300 601 270 601C240 601 210 601 180 601C150 601 120 601 90 601C60 601 30 601 15 601L0 601Z" fill="#3a3a3a"></path></svg>